<svg xmlns="http://www.w3.org/2000/svg" width="480" height="676" class="">
    <defs>
        <style/>
    </defs>
    <style>@keyframes animation-gauge{0%{stroke-dasharray:0 329}}@keyframes animation-rainbow{0%,to{color:#7f00ff;fill:#7f00ff}14%{color:#a933ff;fill:#a933ff}29%{color:#007fff;fill:#007fff}43%{color:#00ff7f;fill:#00ff7f}57%{color:#ff0;fill:#ff0}71%{color:#ff7f00;fill:#ff7f00}86%{color:red;fill:red}}svg{font-family:-apple-system,BlinkMacSystemFont,Segoe UI,Helvetica,Arial,sans-serif,Apple Color Emoji,Segoe UI Emoji;color:#777}h2,h3{margin:8px 0 2px;padding:0;color:#0366d6;font-weight:400}h2 svg,h3 svg{fill:currentColor}h2{font-size:16px}h3,svg{font-size:14px}.h-details{margin:0 4px;padding-top:4px;font-size:.8rem}section&gt;.field{margin-left:5px;margin-right:5px}.field{display:flex;align-items:center;margin-bottom:2px;white-space:nowrap}.field.wrap,.row{flex-wrap:wrap}.field svg{margin:0 8px;fill:#959da5;flex-shrink:0}.row{display:flex}.row section{flex:1 1 0}.column{display:flex;flex-direction:column;align-items:center}.center{justify-content:center}.horizontal-wrap{flex-wrap:wrap}.no-wrap{white-space:nowrap}#metrics-end,.fill-width{width:100%}.margin-bottom{margin-bottom:16px}svg.bar{margin:4px 0}.field.language{margin:0 8px;flex-grow:0}.habits .facts{margin:0;list-style-type:none;padding-left:37px}.chartist .ct-post{fill:rgba(127,127,127,.8)!important;color:rgba(127,127,127,.8)!important;font-size:9px;text-anchor:middle}.chart{padding:0 8px}.activity{margin-bottom:12px}.activity .field{width:100%;overflow:hidden;text-overflow:ellipsis;max-width:450px;white-space:nowrap;margin-bottom:0}.activity .code,code{background-color:#7777771f;border-radius:6px;color:#777;padding:1px 5px;font-size:80%;font-family:SFMono-Regular,Consolas,Liberation Mono,Menlo,monospace}.activity .code{margin:0 4px -3px}code{display:inline-block}.ct-chart{display:flex;margin-left:-12px}.ct-chart-pie .ct-label{fill:rgba(255,255,255,.8)!important;color:rgba(255,255,255,.8)!important}.ct-line,.ct-point{stroke-width:2px!important;stroke:#58a6ff!important}.ct-point{stroke:#106cbc!important}.ct-area{fill:#58a6ff!important}.ct-label{fill:rgba(127,127,127,.8)!important;color:rgba(127,127,127,.8)!important}.ct-label.ct-horizontal{text-anchor:middle!important}.ct-grid{stroke:rgba(127,127,127,.4)!important}:root{--color-calendar-graph-day-bg:#ebedf0;--color-calendar-graph-day-border:rgba(27,31,35,0.06);--color-calendar-graph-day-L1-bg:#9be9a8;--color-calendar-graph-day-L2-bg:#40c463;--color-calendar-graph-day-L3-bg:#30a14e;--color-calendar-graph-day-L4-bg:#216e39;--color-calendar-halloween-graph-day-L1-bg:#ffee4a;--color-calendar-halloween-graph-day-L2-bg:#ffc501;--color-calendar-halloween-graph-day-L3-bg:#fe9600;--color-calendar-halloween-graph-day-L4-bg:#03001c;--color-calendar-graph-day-L4-border:rgba(27,31,35,0.06);--color-calendar-graph-day-L3-border:rgba(27,31,35,0.06);--color-calendar-graph-day-L2-border:rgba(27,31,35,0.06);--color-calendar-graph-day-L1-border:rgba(27,31,35,0.06)}.ct-label{font-size:.75rem;line-height:1}.ct-line{fill:none}.ct-chart-line .ct-label{display:block;display:-webkit-box;display:-moz-box;display:-ms-flexbox;display:-webkit-flex;display:flex}.ct-chart-pie .ct-label{dominant-baseline:central}.ct-label.ct-horizontal.ct-end,.ct-label.ct-vertical.ct-end{-webkit-box-align:flex-start;-webkit-align-items:flex-start;-ms-flex-align:flex-start;align-items:flex-start;-webkit-box-pack:flex-start;-webkit-justify-content:flex-start;-ms-flex-pack:flex-start;justify-content:flex-start;text-align:left;text-anchor:start}.ct-label.ct-vertical.ct-end{-webkit-box-align:flex-end;-webkit-align-items:flex-end;-ms-flex-align:flex-end;align-items:flex-end}.ct-grid{stroke-width:1px;stroke-dasharray:2px}.ct-point{stroke-linecap:round}.ct-line{}.ct-area{stroke:none;fill-opacity:.1}.ct-legend{margin-top:1em}.ct-series-a .ct-line,.ct-series-a .ct-point{background-color:#87ceeb;stroke:#87ceeb}.ct-series-a .ct-area,.ct-series-a .ct-slice-pie{fill:#87ceeb}.ct-series-b .ct-line,.ct-series-b .ct-point{background-color:#32cd32;stroke:#32cd32}.ct-series-b .ct-area,.ct-series-b .ct-slice-pie{fill:#32cd32}</style>
    <style/>
    <foreignObject x="0" y="0" width="100%" height="100%">
        <div xmlns="http://www.w3.org/1999/xhtml" xmlns:xlink="http://www.w3.org/1999/xlink" class="items-wrapper">
            <section>
                <h2 class="field">
                    <svg xmlns="http://www.w3.org/2000/svg" viewBox="0 0 16 16" width="16" height="16">
                        <path fill-rule="evenodd" d="M1.5 2.75a.25.25 0 01.25-.25h12.5a.25.25 0 01.25.25v8.5a.25.25 0 01-.25.25h-6.5a.75.75 0 00-.53.22L4.5 14.44v-2.19a.75.75 0 00-.75-.75h-2a.25.25 0 01-.25-.25v-8.5zM1.75 1A1.75 1.75 0 000 2.75v8.5C0 12.216.784 13 1.75 13H3v1.543a1.457 1.457 0 002.487 1.03L8.061 13h6.189A1.75 1.75 0 0016 11.25v-8.5A1.75 1.75 0 0014.25 1H1.75zm5.03 3.47a.75.75 0 010 1.06L5.31 7l1.47 1.47a.75.75 0 01-1.06 1.06l-2-2a.75.75 0 010-1.06l2-2a.75.75 0 011.06 0zm2.44 0a.75.75 0 000 1.06L10.69 7 9.22 8.47a.75.75 0 001.06 1.06l2-2a.75.75 0 000-1.06l-2-2a.75.75 0 00-1.06 0z"/>
                    </svg>
                    6 Languages
                </h2>
            </section>
            <section class="column">
                <h3 class="field">Most used languages</h3>
                <svg class="bar" xmlns="http://www.w3.org/2000/svg" width="460" height="8">
                    <mask id="languages-bar">
                        <rect x="0" y="0" width="460" height="8" fill="white" rx="5"/>
                    </mask>
                    <rect mask="url(#languages-bar)" x="0" y="0" width="0" height="8" fill="#d1d5da"/>
                    <rect mask="url(#languages-bar)" x="0" y="0" width="163.16333391073047" height="8" fill="#f1e05a"/>
                    <rect mask="url(#languages-bar)" x="163.16333391073047" y="0" width="133.57744510567835" height="8" fill="#e34c26"/>
                    <rect mask="url(#languages-bar)" x="296.74077901640885" y="0" width="77.29038281431201" height="8" fill="#563d7c"/>
                    <rect mask="url(#languages-bar)" x="374.0311618307208" y="0" width="44.31063183885335" height="8" fill="#3572A5"/>
                    <rect mask="url(#languages-bar)" x="418.3417936695742" y="0" width="41.4934426277638" height="8" fill="#c6538c"/>
                    <rect mask="url(#languages-bar)" x="459.835236297338" y="0" width="0.1647637026619966" height="8" fill="#89e051"/>
                </svg>
                <div class="field center horizontal-wrap fill-width">
                    <div class="field center no-wrap language">
                        <svg xmlns="http://www.w3.org/2000/svg" viewBox="0 0 16 16" width="16" height="16">
                            <path fill="#f1e05a" fill-rule="evenodd" d="M8 4a4 4 0 100 8 4 4 0 000-8z"/>
                        </svg>
                        JavaScript
                    </div>
                    <div class="field center no-wrap language">
                        <svg xmlns="http://www.w3.org/2000/svg" viewBox="0 0 16 16" width="16" height="16">
                            <path fill="#e34c26" fill-rule="evenodd" d="M8 4a4 4 0 100 8 4 4 0 000-8z"/>
                        </svg>
                        HTML
                    </div>
                    <div class="field center no-wrap language">
                        <svg xmlns="http://www.w3.org/2000/svg" viewBox="0 0 16 16" width="16" height="16">
                            <path fill="#563d7c" fill-rule="evenodd" d="M8 4a4 4 0 100 8 4 4 0 000-8z"/>
                        </svg>
                        CSS
                    </div>
                    <div class="field center no-wrap language">
                        <svg xmlns="http://www.w3.org/2000/svg" viewBox="0 0 16 16" width="16" height="16">
                            <path fill="#3572A5" fill-rule="evenodd" d="M8 4a4 4 0 100 8 4 4 0 000-8z"/>
                        </svg>
                        Python
                    </div>
                    <div class="field center no-wrap language">
                        <svg xmlns="http://www.w3.org/2000/svg" viewBox="0 0 16 16" width="16" height="16">
                            <path fill="#c6538c" fill-rule="evenodd" d="M8 4a4 4 0 100 8 4 4 0 000-8z"/>
                        </svg>
                        SCSS
                    </div>
                    <div class="field center no-wrap language">
                        <svg xmlns="http://www.w3.org/2000/svg" viewBox="0 0 16 16" width="16" height="16">
                            <path fill="#89e051" fill-rule="evenodd" d="M8 4a4 4 0 100 8 4 4 0 000-8z"/>
                        </svg>
                        Shell
                    </div>
                </div>
            </section>
            <section class="habits">
                <h2 class="field wrap">
                    <svg xmlns="http://www.w3.org/2000/svg" viewBox="0 0 16 16" width="16" height="16">
                        <path fill-rule="evenodd" d="M8 1.5c-2.363 0-4 1.69-4 3.75 0 .984.424 1.625.984 2.304l.214.253c.223.264.47.556.673.848.284.411.537.896.621 1.49a.75.75 0 01-1.484.211c-.04-.282-.163-.547-.37-.847a8.695 8.695 0 00-.542-.68c-.084-.1-.173-.205-.268-.32C3.201 7.75 2.5 6.766 2.5 5.25 2.5 2.31 4.863 0 8 0s5.5 2.31 5.5 5.25c0 1.516-.701 2.5-1.328 3.259-.095.115-.184.22-.268.319-.207.245-.383.453-.541.681-.208.3-.33.565-.37.847a.75.75 0 01-1.485-.212c.084-.593.337-1.078.621-1.489.203-.292.45-.584.673-.848.075-.088.147-.173.213-.253.561-.679.985-1.32.985-2.304 0-2.06-1.637-3.75-4-3.75zM6 15.25a.75.75 0 01.75-.75h2.5a.75.75 0 010 1.5h-2.5a.75.75 0 01-.75-.75zM5.75 12a.75.75 0 000 1.5h4.5a.75.75 0 000-1.5h-4.5z"/>
                    </svg>
                    Recent coding habits
                    <small class="h-details">(computed from last 24 commits)</small>
                </h2>
                <div class="row">
                    <ul class="facts">
                        <li>Uses spaces for indentation</li>
                        <li>Has approximately 53.7 characters per line of code written</li>
                        <li>Mostly pushes code around 14:00</li>
                        <li>Mostly active on Monday</li>
                    </ul>
                </div>
            </section>
            <section class="habits">
                <div class="column chart largeable">
                    <h3>Commit activity per hour of day</h3>
                    <div class="row margin-bottom chartist">
                        <div class="ct-chart">
                            <svg xmlns="http://www.w3.org/2000/svg" xmlns:ct="http://gionkunz.github.com/chartist-js/ct" width="480" height="160" class="ct-chart-line">
                                <!-- (optimized css) -->
                                <g class="ct-grids">
                                    <line y1="125" y2="125" x1="30" x2="465" class="ct-grid ct-vertical"/>
                                    <line y1="88.33333333333334" y2="88.33333333333334" x1="30" x2="465" class="ct-grid ct-vertical"/>
                                    <line y1="51.66666666666667" y2="51.66666666666667" x1="30" x2="465" class="ct-grid ct-vertical"/>
                                    <line y1="15" y2="15" x1="30" x2="465" class="ct-grid ct-vertical"/>
                                </g>
                                <g>
                                    <g class="ct-series ct-series-a">
                                        <path d="M30,125L30,125C36.304,125,42.609,125,48.913,125C55.217,125,61.522,125,67.826,125C74.13,125,80.435,125,86.739,125C93.043,125,99.348,125,105.652,125C111.957,125,118.261,125,124.565,125C130.87,125,137.174,125,143.478,125C149.783,125,156.087,125,162.391,125C168.696,125,175,125,181.304,125C187.609,125,193.913,125,200.217,125C206.522,125,212.826,115.833,219.13,106.667C225.435,97.5,231.739,51.667,238.043,51.667C244.348,51.667,250.652,125,256.957,125C263.261,125,269.565,67.963,275.87,51.667C282.174,35.37,288.478,15,294.783,15C301.087,15,307.391,55.333,313.696,70C320,84.667,326.304,106.667,332.609,106.667C338.913,106.667,345.217,88.333,351.522,88.333C357.826,88.333,364.13,100.556,370.435,106.667C376.739,112.778,383.043,125,389.348,125C395.652,125,401.957,125,408.261,125C414.565,125,420.87,125,427.174,125C433.478,125,439.783,88.333,446.087,88.333C452.391,88.333,458.696,112.778,465,125L465,125Z" class="ct-area"/>
                                        <path d="M30,125C36.304,125,42.609,125,48.913,125C55.217,125,61.522,125,67.826,125C74.13,125,80.435,125,86.739,125C93.043,125,99.348,125,105.652,125C111.957,125,118.261,125,124.565,125C130.87,125,137.174,125,143.478,125C149.783,125,156.087,125,162.391,125C168.696,125,175,125,181.304,125C187.609,125,193.913,125,200.217,125C206.522,125,212.826,115.833,219.13,106.667C225.435,97.5,231.739,51.667,238.043,51.667C244.348,51.667,250.652,125,256.957,125C263.261,125,269.565,67.963,275.87,51.667C282.174,35.37,288.478,15,294.783,15C301.087,15,307.391,55.333,313.696,70C320,84.667,326.304,106.667,332.609,106.667C338.913,106.667,345.217,88.333,351.522,88.333C357.826,88.333,364.13,100.556,370.435,106.667C376.739,112.778,383.043,125,389.348,125C395.652,125,401.957,125,408.261,125C414.565,125,420.87,125,427.174,125C433.478,125,439.783,88.333,446.087,88.333C452.391,88.333,458.696,112.778,465,125" class="ct-line"/>
                                        <line x1="30" y1="125" x2="30.01" y2="125" class="ct-point" ct:value="0"/>
                                        <line x1="48.913043478260875" y1="125" x2="48.92304347826087" y2="125" class="ct-point" ct:value="0"/>
                                        <line x1="67.82608695652175" y1="125" x2="67.83608695652175" y2="125" class="ct-point" ct:value="0"/>
                                        <line x1="86.73913043478261" y1="125" x2="86.74913043478261" y2="125" class="ct-point" ct:value="0"/>
                                        <line x1="105.65217391304348" y1="125" x2="105.66217391304349" y2="125" class="ct-point" ct:value="0"/>
                                        <line x1="124.56521739130436" y1="125" x2="124.57521739130436" y2="125" class="ct-point" ct:value="0"/>
                                        <line x1="143.47826086956522" y1="125" x2="143.4882608695652" y2="125" class="ct-point" ct:value="0"/>
                                        <line x1="162.3913043478261" y1="125" x2="162.40130434782608" y2="125" class="ct-point" ct:value="0"/>
                                        <line x1="181.30434782608697" y1="125" x2="181.31434782608696" y2="125" class="ct-point" ct:value="0"/>
                                        <line x1="200.21739130434784" y1="125" x2="200.22739130434783" y2="125" class="ct-point" ct:value="0"/>
                                        <line x1="219.13043478260872" y1="106.66666666666667" x2="219.1404347826087" y2="106.66666666666667" class="ct-point" ct:value="1"/>
                                        <line x1="238.0434782608696" y1="51.66666666666667" x2="238.05347826086958" y2="51.66666666666667" class="ct-point" ct:value="4"/>
                                        <line x1="256.95652173913044" y1="125" x2="256.9665217391304" y2="125" class="ct-point" ct:value="0"/>
                                        <line x1="275.8695652173913" y1="51.66666666666667" x2="275.8795652173913" y2="51.66666666666667" class="ct-point" ct:value="4"/>
                                        <line x1="294.7826086956522" y1="15" x2="294.7926086956522" y2="15" class="ct-point" ct:value="6"/>
                                        <line x1="313.69565217391306" y1="70" x2="313.70565217391305" y2="70" class="ct-point" ct:value="3"/>
                                        <line x1="332.60869565217394" y1="106.66666666666667" x2="332.6186956521739" y2="106.66666666666667" class="ct-point" ct:value="1"/>
                                        <line x1="351.5217391304348" y1="88.33333333333334" x2="351.5317391304348" y2="88.33333333333334" class="ct-point" ct:value="2"/>
                                        <line x1="370.4347826086957" y1="106.66666666666667" x2="370.4447826086957" y2="106.66666666666667" class="ct-point" ct:value="1"/>
                                        <line x1="389.34782608695656" y1="125" x2="389.35782608695655" y2="125" class="ct-point" ct:value="0"/>
                                        <line x1="408.26086956521743" y1="125" x2="408.2708695652174" y2="125" class="ct-point" ct:value="0"/>
                                        <line x1="427.1739130434783" y1="125" x2="427.1839130434783" y2="125" class="ct-point" ct:value="0"/>
                                        <line x1="446.0869565217392" y1="88.33333333333334" x2="446.0969565217392" y2="88.33333333333334" class="ct-point" ct:value="2"/>
                                        <line x1="465.00000000000006" y1="125" x2="465.01000000000005" y2="125" class="ct-point" ct:value="0"/>
                                    <text x="219.13043478260872" y="101.66666666666667" class="ct-post">1</text><text x="238.0434782608696" y="46.66666666666667" class="ct-post">4</text><text x="275.8695652173913" y="46.66666666666667" class="ct-post">4</text><text x="294.7826086956522" y="10" class="ct-post">6</text><text x="313.69565217391306" y="65" class="ct-post">3</text><text x="332.60869565217394" y="101.66666666666667" class="ct-post">1</text><text x="351.5217391304348" y="83.33333333333334" class="ct-post">2</text><text x="370.4347826086957" y="101.66666666666667" class="ct-post">1</text><text x="446.0869565217392" y="83.33333333333334" class="ct-post">2</text></g>
                                </g>
                                <g class="ct-labels">
                                    <text x="30" y="145" width="18.91304347826087" height="20" class="ct-label ct-horizontal ct-end">0</text>
                                    <text x="48.913043478260875" y="145" width="18.91304347826087" height="20" class="ct-label ct-horizontal ct-end">1</text>
                                    <text x="67.82608695652175" y="145" width="18.913043478260867" height="20" class="ct-label ct-horizontal ct-end">2</text>
                                    <text x="86.73913043478261" y="145" width="18.913043478260875" height="20" class="ct-label ct-horizontal ct-end">3</text>
                                    <text x="105.65217391304348" y="145" width="18.913043478260875" height="20" class="ct-label ct-horizontal ct-end">4</text>
                                    <text x="124.56521739130436" y="145" width="18.91304347826086" height="20" class="ct-label ct-horizontal ct-end">5</text>
                                    <text x="143.47826086956522" y="145" width="18.913043478260875" height="20" class="ct-label ct-horizontal ct-end">6</text>
                                    <text x="162.3913043478261" y="145" width="18.913043478260875" height="20" class="ct-label ct-horizontal ct-end">7</text>
                                    <text x="181.30434782608697" y="145" width="18.913043478260875" height="20" class="ct-label ct-horizontal ct-end">8</text>
                                    <text x="200.21739130434784" y="145" width="18.913043478260875" height="20" class="ct-label ct-horizontal ct-end">9</text>
                                    <text x="219.13043478260872" y="145" width="18.913043478260875" height="20" class="ct-label ct-horizontal ct-end">10</text>
                                    <text x="238.0434782608696" y="145" width="18.913043478260846" height="20" class="ct-label ct-horizontal ct-end">11</text>
                                    <text x="256.95652173913044" y="145" width="18.913043478260875" height="20" class="ct-label ct-horizontal ct-end">12</text>
                                    <text x="275.8695652173913" y="145" width="18.913043478260875" height="20" class="ct-label ct-horizontal ct-end">13</text>
                                    <text x="294.7826086956522" y="145" width="18.913043478260875" height="20" class="ct-label ct-horizontal ct-end">14</text>
                                    <text x="313.69565217391306" y="145" width="18.913043478260875" height="20" class="ct-label ct-horizontal ct-end">15</text>
                                    <text x="332.60869565217394" y="145" width="18.913043478260875" height="20" class="ct-label ct-horizontal ct-end">16</text>
                                    <text x="351.5217391304348" y="145" width="18.913043478260875" height="20" class="ct-label ct-horizontal ct-end">17</text>
                                    <text x="370.4347826086957" y="145" width="18.913043478260875" height="20" class="ct-label ct-horizontal ct-end">18</text>
                                    <text x="389.34782608695656" y="145" width="18.913043478260875" height="20" class="ct-label ct-horizontal ct-end">19</text>
                                    <text x="408.26086956521743" y="145" width="18.913043478260875" height="20" class="ct-label ct-horizontal ct-end">20</text>
                                    <text x="427.1739130434783" y="145" width="18.913043478260875" height="20" class="ct-label ct-horizontal ct-end">21</text>
                                    <text x="446.0869565217392" y="145" width="18.913043478260875" height="20" class="ct-label ct-horizontal ct-end">22</text>
                                    <text x="465.00000000000006" y="145" width="30" height="20" class="ct-label ct-horizontal ct-end">23</text>
                                </g>
                            </svg>
                            <div class="ct-legend">
                            </div>
                        </div>
                    </div>
                </div>
                <div class="row largeable">
                    <section class="column chart">
                        <h3>Commit activity per day of week</h3>
                        <div class="margin-bottom chartist">
                            <div class="ct-chart">
                                <svg xmlns="http://www.w3.org/2000/svg" xmlns:ct="http://gionkunz.github.com/chartist-js/ct" width="216" height="160" class="ct-chart-line">
                                    <!-- (optimized css) -->
                                    <g class="ct-grids">
                                        <line y1="125" y2="125" x1="30" x2="201" class="ct-grid ct-vertical"/>
                                        <line y1="88.33333333333334" y2="88.33333333333334" x1="30" x2="201" class="ct-grid ct-vertical"/>
                                        <line y1="51.66666666666667" y2="51.66666666666667" x1="30" x2="201" class="ct-grid ct-vertical"/>
                                        <line y1="15" y2="15" x1="30" x2="201" class="ct-grid ct-vertical"/>
                                    </g>
                                    <g>
                                        <g class="ct-series ct-series-a">
                                            <path d="M30,125L30,81C39.5,61.444,49,22.333,58.5,22.333C68,22.333,77.5,125,87,125C96.5,125,106,117.667,115.5,117.667C125,117.667,134.5,125,144,125C153.5,125,163,120.111,172.5,117.667C182,115.222,191.5,112.778,201,110.333L201,125Z" class="ct-area"/>
                                            <path d="M30,81C39.5,61.444,49,22.333,58.5,22.333C68,22.333,77.5,125,87,125C96.5,125,106,117.667,115.5,117.667C125,117.667,134.5,125,144,125C153.5,125,163,120.111,172.5,117.667C182,115.222,191.5,112.778,201,110.333" class="ct-line"/>
                                            <line x1="30" y1="81" x2="30.01" y2="81" class="ct-point" ct:value="6"/>
                                            <line x1="58.5" y1="22.33333333333333" x2="58.51" y2="22.33333333333333" class="ct-point" ct:value="14"/>
                                            <line x1="87" y1="125" x2="87.01" y2="125" class="ct-point" ct:value="0"/>
                                            <line x1="115.5" y1="117.66666666666667" x2="115.51" y2="117.66666666666667" class="ct-point" ct:value="1"/>
                                            <line x1="144" y1="125" x2="144.01" y2="125" class="ct-point" ct:value="0"/>
                                            <line x1="172.5" y1="117.66666666666667" x2="172.51" y2="117.66666666666667" class="ct-point" ct:value="1"/>
                                            <line x1="201" y1="110.33333333333333" x2="201.01" y2="110.33333333333333" class="ct-point" ct:value="2"/>
                                        <text x="30" y="76" class="ct-post">6</text><text x="58.5" y="17.33333333333333" class="ct-post">14</text><text x="115.5" y="112.66666666666667" class="ct-post">1</text><text x="172.5" y="112.66666666666667" class="ct-post">1</text><text x="201" y="105.33333333333333" class="ct-post">2</text></g>
                                    </g>
                                    <g class="ct-labels">
                                        <text x="30" y="145" width="28.5" height="20" class="ct-label ct-horizontal ct-end">Sun</text>
                                        <text x="58.5" y="145" width="28.5" height="20" class="ct-label ct-horizontal ct-end">Mon</text>
                                        <text x="87" y="145" width="28.5" height="20" class="ct-label ct-horizontal ct-end">Tue</text>
                                        <text x="115.5" y="145" width="28.5" height="20" class="ct-label ct-horizontal ct-end">Wed</text>
                                        <text x="144" y="145" width="28.5" height="20" class="ct-label ct-horizontal ct-end">Thu</text>
                                        <text x="172.5" y="145" width="28.5" height="20" class="ct-label ct-horizontal ct-end">Fri</text>
                                        <text x="201" y="145" width="30" height="20" class="ct-label ct-horizontal ct-end">Sat</text>
                                    </g>
                                </svg>
                                <div class="ct-legend">
                                </div>
                            </div>
                        </div>
                    </section>
                    <section class="column chart">
                        <h3>Language activity</h3>
                        <div class="margin-bottom chartist">
                            <div class="ct-chart">
                                <svg xmlns="http://www.w3.org/2000/svg" xmlns:ct="http://gionkunz.github.com/chartist-js/ct" width="216" height="160" class="ct-chart-pie">
                                    <g class="ct-series ct-series-a">
                                        <path d="M160.489,133.571A75,75,0,0,0,108,5L108,80Z" class="ct-slice-pie" ct:value="0.006013478486262312"/>
                                    </g>
                                    <g class="ct-series ct-series-b">
                                        <path d="M108,5A75,75,0,1,0,160.676,133.388L108,80Z" class="ct-slice-pie" ct:value="0.009953343701399688"/>
                                    </g>
                                    <g>
                                        <text dx="142.71821962578366" dy="65.826248696416" text-anchor="middle" class="ct-label">Python</text>
                                        <text dx="73.28178037421632" dy="94.173751303584" text-anchor="middle" class="ct-label">HTML</text>
                                    </g>
                                </svg>
                                <div class="ct-legend">
                                </div>
                            </div>
                        </div>
                    </section>
                </div>
            </section>
        </div>
        <div xmlns="http://www.w3.org/1999/xhtml" id="metrics-end"></div>
    </foreignObject>
</svg>